# xmcd
#
# Track frame offsets:
#       182
#       11710
#       24327
#       52212
#       63330
#       76642
#       85487
#       99467
#       111712
#       126777
#       137480
#       148670
#
# Disc length: 2114 seconds
#
# Revision: 1
# Processed by: cddbd v1.5.1PL0 Copyright (c) Steve Scherf et al.
# Submitted via: MusiCat 1.1
#
DISCID=a308400c
DTITLE=Various Artist - Grandes Instrumentistas Vol 2
DYEAR=1900
DGENRE=
TTITLE0=Delicado
TTITLE1=Som de carrilhões
TTITLE2=Atire a primeira pedra/Deus me perdoe/Pergunte ao João
TTITLE3=Apanhei-te cavaquinho
TTITLE4=Favela
TTITLE5=Gravêto no choro
TTITLE6=No rancho fundo
TTITLE7=Treme treme
TTITLE8=Chega de saudade/Barracão/Que pena
TTITLE9=Com que roupa
TTITLE10=Tico tico no fubá
TTITLE11=Baião de dois
EXTD=\n\n
EXTT0=
EXTT1=
EXTT2=
EXTT3=
EXTT4=
EXTT5=
EXTT6=
EXTT7=
EXTT8=
EXTT9=
EXTT10=
EXTT11=
PLAYORDER=
